<?xml version="1.0" encoding="utf-8"?>
<!-- Generator: Adobe Illustrator 21.1.0, SVG Export Plug-In . SVG Version: 6.00 Build 0)  -->
<svg version="1.1" id="Layer_1" xmlns="http://www.w3.org/2000/svg" xmlns:xlink="http://www.w3.org/1999/xlink" x="0px" y="0px"
	 viewBox="0 0 841.9 513.7" style="enable-background:new 0 0 841.9 513.7;" xml:space="preserve">
<style type="text/css">
	.st0{fill:#010101;}
	.st1{fill:none;stroke:#EE3324;stroke-width:1.316;}
	.st2{clip-path:url(#SVGID_2_);fill:none;stroke:#EE3324;stroke-width:1.316;}
	.st3{clip-path:url(#SVGID_4_);fill:none;stroke:#EE3324;stroke-width:1.316;}
	.st4{clip-path:url(#SVGID_6_);fill:none;stroke:#EE3324;stroke-width:1.316;}
	.st5{clip-path:url(#SVGID_8_);fill:none;stroke:#EE3324;stroke-width:1.316;}
	.st6{clip-path:url(#SVGID_10_);fill:none;stroke:#EE3324;stroke-width:1.316;}
	.st7{clip-path:url(#SVGID_12_);fill:none;stroke:#EE3324;stroke-width:1.316;}
</style>
<rect x="745.1" y="194.2" class="st0" width="32.6" height="32.6"/>
<rect x="745.1" y="194.2" class="st1" width="32.6" height="32.6"/>
<rect x="801.6" y="331.1" class="st0" width="32.6" height="32.6"/>
<g>
	<defs>
		<rect id="SVGID_1_" x="6.8" y="6.6" width="827.8" height="418.7"/>
	</defs>
	<clipPath id="SVGID_2_">
		<use xlink:href="#SVGID_1_"  style="overflow:visible;"/>
	</clipPath>
	<rect x="801.6" y="331.1" class="st2" width="32.6" height="32.6"/>
</g>
<rect x="45.4" y="50.1" class="st0" width="31.3" height="32.9"/>
<rect x="45.4" y="50.1" class="st1" width="31.3" height="32.9"/>
<rect x="84.2" y="89" class="st0" width="32.6" height="32.6"/>
<rect x="84.2" y="89" class="st1" width="32.6" height="32.6"/>
<rect x="7.3" y="7.1" class="st0" width="32.6" height="32.6"/>
<g>
	<defs>
		<rect id="SVGID_3_" x="6.8" y="6.6" width="827.8" height="418.7"/>
	</defs>
	<clipPath id="SVGID_4_">
		<use xlink:href="#SVGID_3_"  style="overflow:visible;"/>
	</clipPath>
	<rect x="7.3" y="7.1" class="st3" width="32.6" height="32.6"/>
</g>
<rect x="590.9" y="57.6" class="st0" width="32.6" height="32.6"/>
<rect x="590.9" y="57.6" class="st1" width="32.6" height="32.6"/>
<rect x="642.5" y="7.3" class="st0" width="32.6" height="32.6"/>
<g>
	<defs>
		<rect id="SVGID_5_" x="6.8" y="6.6" width="827.8" height="418.7"/>
	</defs>
	<clipPath id="SVGID_6_">
		<use xlink:href="#SVGID_5_"  style="overflow:visible;"/>
	</clipPath>
	<rect x="642.5" y="7.3" class="st4" width="32.6" height="32.6"/>
</g>
<rect x="40.3" y="259.6" class="st0" width="32.6" height="32.6"/>
<rect x="40.3" y="259.6" class="st1" width="32.6" height="32.6"/>
<rect x="381.9" y="150.2" class="st0" width="34.2" height="32.6"/>
<rect x="381.9" y="150.2" class="st1" width="34.2" height="32.6"/>
<rect x="476.1" y="321" class="st0" width="32.6" height="32.6"/>
<rect x="476.1" y="321" class="st1" width="32.6" height="32.6"/>
<rect x="456.7" y="392.3" class="st0" width="32.6" height="32.6"/>
<g>
	<defs>
		<rect id="SVGID_7_" x="6.8" y="6.6" width="827.8" height="418.7"/>
	</defs>
	<clipPath id="SVGID_8_">
		<use xlink:href="#SVGID_7_"  style="overflow:visible;"/>
	</clipPath>
	<rect x="456.7" y="392.3" class="st5" width="32.6" height="32.6"/>
</g>
<rect x="133.8" y="7.1" class="st0" width="32.6" height="32.6"/>
<g>
	<defs>
		<rect id="SVGID_9_" x="6.8" y="6.6" width="827.8" height="418.7"/>
	</defs>
	<clipPath id="SVGID_10_">
		<use xlink:href="#SVGID_9_"  style="overflow:visible;"/>
	</clipPath>
	<rect x="133.8" y="7.1" class="st6" width="32.6" height="32.6"/>
</g>
<rect x="253.1" y="7.1" class="st0" width="32.6" height="32.6"/>
<g>
	<defs>
		<rect id="SVGID_11_" x="6.8" y="6.6" width="827.8" height="418.7"/>
	</defs>
	<clipPath id="SVGID_12_">
		<use xlink:href="#SVGID_11_"  style="overflow:visible;"/>
	</clipPath>
	<rect x="253.1" y="7.1" class="st7" width="32.6" height="32.6"/>
</g>
</svg>
